<svg id="Layer_2" xmlns="http://www.w3.org/2000/svg" viewBox="0 0 16 16" width="40px" height="40px" fill="#5a4ad1">
<g id="Layer_1-2">
<g>
<path d="M10.31,10.24s2.9-4.35,.75-6.32c-.98-.89-2.58-.65-3.32,.45s-.86,3.01,2.58,5.87Z"/>
<path d="M.26,.11C0,.23,0,.57,0,.81c.01,.39,.04,.79,.05,1.19,.01,.73,.01,1.45,0,2.18-.02,.69,.07,1.37,.07,2.06,.22,2.29,1.43,4.23,3.76,4.79,1.54,.37,3.14,.16,4.7,.07,.31-.02,.52-.11,.22-.38-.25-.22-.49-.47-.7-.72-.82-.96-1.46-2.17-1.68-3.42-.23-1.34-.14-2.74-.71-4C5.15,1.33,3.98,.46,2.67,.17,2.25,.07,1.82,.02,1.39,.01,1.03,0,.59-.05,.26,.11Z"/>
</g>
</g>
</svg>