<svg id="Layer_2" xmlns="http://www.w3.org/2000/svg" viewBox="0 0 31 31" fill="#000000">
<g id="Layer_1-2"><g><circle cx="15.5" cy="5.64" r="5.64"/>
<circle cx="26.77" cy="10.41" r="4.23"/>
<path d="M22.74,21.33v9.67H8.26v-9.67c0-4,3.24-7.24,7.24-7.24,2,0,3.8,.82,5.13,2.11,1.3,1.32,2.11,3.13,2.11,5.13Z"/><path d="M30.52,23v8h-5.44v-13.44c1.49,0,2.85,.62,3.83,1.58,.99,1.01,1.61,2.37,1.61,3.86Z"/>
<circle cx="4.23" cy="10.41" r="4.23"/>
<path d="M5.92,17.56v13.44H.48v-8c0-1.49,.62-2.85,1.61-3.86,.99-.96,2.34-1.58,3.83-1.58Z"/>
</g></g></svg>